<?xml version="1.0" encoding="utf-8"?>
<!-- Svg Vector Icons : http://www.onlinewebfonts.com/icon -->
<!DOCTYPE svg PUBLIC "-//W3C//DTD SVG 1.1//EN" "http://www.w3.org/Graphics/SVG/1.1/DTD/svg11.dtd">
<svg version="1.1" xmlns="http://www.w3.org/2000/svg" xmlns:xlink="http://www.w3.org/1999/xlink" x="0px" y="0px" viewBox="0 0 1000 1000" enable-background="new 0 0 1000 1000" xml:space="preserve">
<metadata> Svg Vector Icons : http://www.onlinewebfonts.com/icon </metadata>
<g><path d="M500,59C229.8,59,10,256.9,10,500c0,89.2,29.6,174.9,85.8,248.7L41.1,922.8L225.6,865C307.1,914.7,401.7,941,500,941c270.2,0,490-197.8,490-441C990,256.9,770.2,59,500,59z M84.6,643L84.6,643l0.6,1.5C85,644,84.9,643.5,84.6,643z M329.1,550c-27.7,0-50.1-22.4-50.1-50c0-27.7,22.4-50.1,50.1-50.1c27.6,0,50,22.4,50,50.1C379.1,527.6,356.7,550,329.1,550z M500,550c-27.7,0-50.1-22.4-50.1-50c0-27.7,22.4-50.1,50.1-50.1c27.6,0,50,22.4,50,50.1C550,527.6,527.6,550,500,550z M670.9,550c-27.7,0-50.1-22.4-50.1-50c0-27.7,22.4-50.1,50.1-50.1c27.6,0,50,22.4,50,50.1C720.9,527.6,698.5,550,670.9,550z"/></g>
</svg>