<?xml version="1.0" encoding="utf-8"?>
<!-- Svg Vector Icons : http://www.onlinewebfonts.com/icon -->
<!DOCTYPE svg PUBLIC "-//W3C//DTD SVG 1.1//EN" "http://www.w3.org/Graphics/SVG/1.1/DTD/svg11.dtd">
<svg version="1.1" xmlns="http://www.w3.org/2000/svg" xmlns:xlink="http://www.w3.org/1999/xlink" x="0px" y="0px" viewBox="0 0 1000 1000" enable-background="new 0 0 1000 1000" xml:space="preserve">
<metadata> Svg Vector Icons : http://www.onlinewebfonts.com/icon </metadata>
<g><path d="M607.1,881.9h294c48.8,0,88.9-39.9,88.9-89.1V207.2c0-49.1-39.8-89.1-88.9-89.1H533.2c-48.8,0-88.9,39.9-88.9,89.1v493.5v-92.1c0,0,44.6-28.7,67.3-28.7c22.7,0,52.7,20.3,107.7,66.5c55,46.2,82.4,71.8,82.4,94.9c0,23.1-13.9,63.3-49.7,102.8C636.7,861,621.8,872.8,607.1,881.9z M307,663.5c0,0,50.7,46.6,93.8,26.1c92.3-44.3,92.2-63.1,132.2-34.6c139.7,99.2,103.4,75.8,100,108c-3.4,32.2-99.6,144.7-202.8,106.8C326.4,832,225.7,764.3,148.9,669.7c-76-95.1-121-208.2-136.3-318.2c-15.2-109.3,38.2-202.4,93.2-211.7c14-2.4,69.8-2.7,137.3,155.1c19.2,45.4,1.2,41.5-61.1,123c-29.2,38.1,5.7,97.6,5.7,97.6s23.2,46.7,50.8,81.2L307,663.5z M541.4,271c0-19.5,15.7-35.3,35-35.3h295.4c19.4,0,35,15.7,35,35.3c0,19.5-15.7,35.3-35,35.3H576.5C557.1,306.3,541.4,290.7,541.4,271z M541.4,466.1c0-19.5,15.7-35.3,35-35.3h295.4c19.4,0,35,15.7,35,35.3c0,19.5-15.7,35.3-35,35.3H576.5C557.1,501.4,541.4,485.8,541.4,466.1z M731.9,645c0-19.5,16.2-35.3,35.4-35.3h104.2c19.6,0,35.4,15.7,35.4,35.3c0,19.5-16.2,35.3-35.4,35.3H767.3C747.8,680.3,731.9,664.6,731.9,645z"/></g>
</svg>