<?xml version="1.0" encoding="utf-8"?>
<!-- Svg Vector Icons : http://www.onlinewebfonts.com/icon -->
<!DOCTYPE svg PUBLIC "-//W3C//DTD SVG 1.1//EN" "http://www.w3.org/Graphics/SVG/1.1/DTD/svg11.dtd">
<svg version="1.1" xmlns="http://www.w3.org/2000/svg" xmlns:xlink="http://www.w3.org/1999/xlink" x="0px" y="0px" viewBox="0 0 1000 1000" enable-background="new 0 0 1000 1000" xml:space="preserve">
<metadata> Svg Vector Icons : http://www.onlinewebfonts.com/icon </metadata>
<g><path d="M919.9,279.4c-3.3-3.3-6.5-6.5-13.1-6.5c-13.1-3.3-29.5-3.3-45.8-3.3c-62.2,0-121.1,22.9-140.7,29.5l0,0c0,0-49.1-16.4-130.9-49.1c-58.9-26.2-117.8-16.4-163.7,9.8c-45.8-3.3-134.2-6.5-170.2-6.5c-52.4-16.4-173.5-36-180-36c-9.8-3.3-22.9,6.5-22.9,16.4c-3.3,9.8-39.3,222.6-42.5,369.9c0,9.8,6.5,16.4,16.4,19.6c13.1,3.3,32.7,3.3,58.9,3.3c42.5,0,85.1-3.3,85.1-3.3c6.5,0,16.4-6.5,16.4-13.1c0-3.3,6.5-16.4,13.1-36l36,29.5c19.6,16.4,180,150.6,199.7,163.7c13.1,9.8,36,16.4,58.9,16.4c3.3,0,6.5,0,9.8,0c16.4-3.3,29.5-6.5,39.3-16.4c19.6,9.8,45.8,9.8,65.5,3.3c13.1-6.5,26.2-13.1,32.7-26.2c16.4,3.3,36,0,52.4-6.5c16.4-6.5,29.5-19.6,32.7-36c13.1,0,29.5-3.3,39.3-16.4c19.6-16.4,29.5-45.8,19.6-72l19.6-16.4c3.3,3.3,3.3,6.5,6.5,6.5c16.4,6.5,45.8,9.8,91.6,9.8c36,0,68.7-3.3,68.7-3.3c6.5,0,9.8-3.3,13.1-6.5c3.3-3.3,6.5-9.8,3.3-16.4C988.6,560.9,969,348.1,919.9,279.4z M739.9,649.2c-3.3,3.3-13.1,6.5-19.6,3.3c-16.4-13.1-104.7-94.9-134.2-124.4c-9.8-6.5-19.6-6.5-29.5,0c-6.5,9.8-6.5,19.6,0,29.5c3.3,3.3,98.2,91.6,130.9,121.1c-3.3,9.8-9.8,13.1-13.1,16.4c-9.8,6.5-26.2,6.5-29.5,0l0,0l0,0c-26.2-22.9-104.7-91.6-114.6-101.5c-6.5-9.8-19.6-9.8-29.5,0c-9.8,6.5-9.8,19.6,0,29.5c9.8,9.8,72,68.7,108,94.9c-3.3,3.3-6.5,6.5-9.8,9.8c-13.1,3.3-32.7,3.3-42.5-6.5l0,0l0,0c-26.2-22.9-62.2-55.6-85.1-81.8c-6.5-9.8-19.6-9.8-29.5,0c-9.8,6.5-9.8,19.6,0,29.5c19.6,22.9,49.1,49.1,72,72c-3.3,0-6.5,3.3-9.8,3.3c-13.1,0-32.7-3.3-42.5-9.8c-13.1-9.8-108-88.4-196.4-160.4l-49.1-42.5c19.6-68.7,49.1-170.2,58.9-235.7c26.2,0,65.5,0,101.5,3.3c-29.5,26.2-62.2,88.4-52.4,134.2c3.3,19.6,16.4,32.7,36,39.3c58.9,19.6,101.5-29.5,121.1-58.9c16.4,0,19.6-3.3,39.3-9.8l0,0c75.3,52.4,199.7,170.2,225.8,219.3C753,629.6,746.4,642.7,739.9,649.2z M766.1,574c-45.8-68.7-166.9-173.5-232.4-219.3c-6.5-3.3-13.1-3.3-19.6-3.3l-9.8,3.3c-19.6,6.5-19.6,6.5-32.7,6.5H465c-6.5,0-13.1,3.3-16.4,9.8c-26.2,39.3-49.1,62.2-78.6,52.4c-6.5-3.3-9.8-6.5-9.8-9.8c-6.5-26.2,16.4-72,39.3-94.9c36-36,104.7-68.7,170.2-36c81.8,36,134.2,52.4,134.2,52.4l0,0c22.9,39.3,62.2,150.6,85.1,219.3L766.1,574z"/></g>
</svg>