<?xml version="1.0" encoding="utf-8"?>
<!-- Svg Vector Icons : http://www.onlinewebfonts.com/icon -->
<!DOCTYPE svg PUBLIC "-//W3C//DTD SVG 1.1//EN" "http://www.w3.org/Graphics/SVG/1.1/DTD/svg11.dtd">
<svg version="1.1" xmlns="http://www.w3.org/2000/svg" xmlns:xlink="http://www.w3.org/1999/xlink" x="0px" y="0px" viewBox="0 0 1000 1000" enable-background="new 0 0 1000 1000" xml:space="preserve">
<metadata> Svg Vector Icons : http://www.onlinewebfonts.com/icon </metadata>
<g><g transform="translate(0.000000,512.000000) scale(0.100000,-0.100000)"><path d="M3055.3,4983.6c-32.5-21.1-68.9-65.1-82.3-99.5c-13.4-40.2-21.1-294.8-21.1-775.2V3393H1621.7c-1458.5,0-1431.7,1.9-1491.1-112.9c-26.8-51.7-30.6-457.5-30.6-3994.6v-3935.3l65.1-65.1l65.1-65.1H5000h4769.8l65.1,65.1l65.1,65.1V-1105v3544.8l-65.1,65.1l-65.1,65.1H8408.9H7048v1129.3c0,934.1-3.8,1142.7-26.8,1196.3c-55.5,132.1,61.3,124.4-2025.1,124.4C3179.7,5020,3112.7,5018,3055.3,4983.6z M6627,120v-4498h-402h-402v516.8c0,555.1-7.7,614.4-97.6,677.6c-40.2,26.8-128.3,30.6-729.3,30.6h-685.2l-61.3-55.5l-63.2-55.5l-5.7-557l-5.7-557h-400h-402V120v4498h1627h1627V120z M2952-703.1v-3675l-1219.3,3.8l-1221.2,5.7l-5.7,3671.2L502,2971.9h1225h1225V-703.1z M9488.5-1105v-3263.5l-1219.3-5.7l-1221.2-3.8V-1105v3273l1221.2-3.8l1219.3-5.7V-1105z M5402-3957v-402h-402h-402v402v402h402h402V-3957z"/><path d="M4280.3,3758.6c-68.9-42.1-111-143.6-91.9-220.1c34.5-141.6,256.5-197.2,371.3-91.9C4755,3622.7,4508.1,3898.3,4280.3,3758.6z"/><path d="M5484.3,3775.8c-24.9-9.6-61.3-45.9-82.3-80.4c-88-139.7,13.4-302.4,189.5-302.4c111,0,179.9,45.9,212.5,141.6C5859.4,3705,5668,3848.5,5484.3,3775.8z"/><path d="M4257.3,2924.1c-147.4-124.4-51.7-354.1,147.4-354.1c204.8,0,302.4,216.3,155,350.3C4479.4,2991,4339.6,2993,4257.3,2924.1z"/><path d="M5440.2,2920.2c-78.5-70.8-91.9-164.6-38.3-250.7c128.2-204.8,476.6-67,402,160.8c-32.5,95.7-101.4,141.6-212.5,141.6C5516.8,2971.9,5486.2,2962.3,5440.2,2920.2z"/><path d="M4297.5,2137.4c-74.6-38.3-128.2-141.6-111-218.2c42.1-191.4,325.4-227.8,419.2-53.6c34.5,59.3,34.5,76.6,15.3,147.4c-13.4,44-45.9,91.9-70.8,109.1C4481.3,2168,4368.4,2173.7,4297.5,2137.4z"/><path d="M5484.3,2139.3c-65.1-26.8-120.6-112.9-120.6-185.7c0-74.6,67-162.7,143.6-187.6c193.3-63.2,367.5,103.4,287.1,275.6C5740.7,2152.7,5608.7,2194.8,5484.3,2139.3z"/><path d="M4280.3,1308.6c-68.9-42.1-111-143.6-91.9-220.1c34.5-141.6,256.5-197.2,371.3-91.9C4755,1172.7,4508.1,1448.3,4280.3,1308.6z"/><path d="M5484.3,1325.8c-24.9-9.6-61.3-45.9-82.3-80.4c-88-139.7,13.4-302.4,189.5-302.4c111,0,179.9,45.9,212.5,141.6C5859.4,1255,5668,1398.5,5484.3,1325.8z"/><path d="M4257.3,474.1C4110,349.6,4205.7,120,4404.7,120c204.8,0,302.4,216.3,155,350.3C4479.4,541.1,4339.6,543,4257.3,474.1z"/><path d="M5440.2,470.2c-191.4-172.3,36.4-442.1,269.9-319.6c70.8,36.4,120.6,141.6,103.4,220.1C5780.9,516.2,5558.9,575.5,5440.2,470.2z"/><path d="M4297.5-312.6c-32.5-17.2-74.6-59.3-91.9-95.7c-80.4-172.3,93.8-338.8,285.2-275.6c176.1,57.4,189.5,304.3,21.1,375.1C4427.7-274.3,4374.1-276.3,4297.5-312.6z"/><path d="M5484.3-310.7c-65.1-26.8-120.6-112.9-120.6-185.7c0-74.6,67-162.7,143.6-187.6c193.3-63.2,367.5,103.3,287.1,275.6C5740.7-297.3,5608.7-255.2,5484.3-310.7z"/><path d="M4291.8-1129.9c-65.1-32.5-120.6-151.2-105.3-223.9c32.5-147.4,254.6-208.6,373.2-99.5C4747.3-1285,4523.4-1015.1,4291.8-1129.9z"/><path d="M5488.1-1122.3c-74.7-30.6-114.8-97.6-114.8-187.6c0-72.7,9.6-93.8,63.2-141.6c49.8-45.9,78.5-55.5,155-55.5c111,0,179.9,45.9,212.5,141.6C5859.4-1196.9,5666.1-1049.5,5488.1-1122.3z"/><path d="M4257.3-1975.9c-147.4-124.4-51.7-354.1,147.4-354.1c204.8,0,302.4,216.3,155,350.3C4479.4-1908.9,4339.6-1907,4257.3-1975.9z"/><path d="M5440.2-1979.8c-78.5-70.8-91.9-164.6-38.3-250.7c128.2-204.8,476.6-67,402,160.8c-32.5,95.7-101.4,141.7-212.5,141.7C5516.8-1928.1,5486.2-1937.6,5440.2-1979.8z"/><path d="M1235,2137.4c-74.6-38.3-128.2-141.6-111-218.2c15.3-72.7,95.7-149.3,170.4-162.7c32.5-7.7,264.1-9.6,514.9-5.7l457.5,5.7l55.5,63.2c76.6,86.1,76.6,189.5,0,275.6l-55.5,63.2l-486.2,5.7C1369,2168,1286.7,2164.2,1235,2137.4z"/><path d="M1217.8,1308.6c-68.9-42.1-111-143.6-91.9-220.1c5.7-26.8,38.3-70.8,68.9-97.6l57.4-47.9h507.2h507.2l55.5,55.5c95.7,97.6,68.9,262.2-53.6,325.4c-26.8,13.4-204.8,21.1-516.8,21.1C1317.3,1345,1271.4,1341.1,1217.8,1308.6z"/><path d="M1194.8,474.1c-72.7-61.3-91.9-137.8-53.6-225.9C1191,127.6,1225.5,120,1755.7,120c310.1,0,486.2,7.7,513,21.1c72.7,36.4,109.1,97.6,109.1,185.7c0,67-11.5,93.8-55.5,139.7l-55.5,55.5h-507.2h-507.2L1194.8,474.1z"/><path d="M1235-312.6c-74.6-38.3-128.2-141.6-111-218.2c15.3-72.7,95.7-149.3,170.4-162.7c32.5-7.7,264.1-9.6,514.9-5.7l457.5,5.7l55.5,63.2c76.6,86.1,76.6,189.5,0,275.6l-55.5,63.2l-486.2,5.7C1369-282,1286.7-285.8,1235-312.6z"/><path d="M1229.3-1129.9c-65.1-32.5-120.6-151.2-105.3-223.9c7.7-30.6,38.3-78.5,70.8-105.3l57.4-47.9h507.2h507.2l55.5,55.5c44,44,55.5,72.7,55.5,135.9c0,99.5-24.9,145.5-95.7,181.8C2207.4-1095.5,1305.9-1091.6,1229.3-1129.9z"/><path d="M1194.8-1975.9c-72.7-61.3-91.9-137.8-53.6-225.9c49.8-120.6,84.2-128.3,614.4-128.3c310.1,0,486.2,7.7,513,21.1c72.7,36.4,109.1,97.6,109.1,185.7c0,67-11.5,93.8-55.5,139.7l-55.5,55.5h-507.2h-507.2L1194.8-1975.9z"/><path d="M1235-2762.6c-74.6-38.3-128.2-141.7-111-218.2c15.3-72.7,95.7-149.3,170.4-162.7c32.5-7.7,264.1-9.6,514.9-5.7l457.5,5.7l55.5,63.2c76.6,86.1,76.6,189.5,0,275.6l-55.5,63.1l-486.2,5.7C1369-2732,1286.7-2735.8,1235-2762.6z"/><path d="M7765.8,1322c-70.8-38.3-105.3-99.5-105.3-183.7c0-67,11.5-93.8,55.5-139.7l55.5-55.5h509.2h509.1l57.4,53.6c109.1,95.7,80.4,279.5-49.8,329.2C8728.6,1352.6,7813.7,1348.8,7765.8,1322z"/><path d="M7716.1,466.4c-91.9-93.8-65.1-271.8,49.8-323.5c61.3-28.7,958.9-32.5,1031.7-3.8c130.1,49.8,158.9,233.5,49.8,331.1l-57.4,51.7h-509.1h-509.2L7716.1,466.4z"/><path d="M7783.1-301.1c-126.3-51.7-160.8-224-67-329.2l55.5-63.2l478.5-5.7c553.2-5.8,597.2,1.9,648.9,124.4c24.9,63.2,26.8,82.3,3.8,149.3c-45.9,134-86.1,143.6-620.2,141.6C8030-283.9,7804.1-291.6,7783.1-301.1z"/><path d="M7765.8-1128c-70.8-38.3-105.3-99.5-105.3-183.7c0-67,11.5-93.8,55.5-139.7l55.5-55.5h509.2h509.1l57.4,53.6c109.1,95.7,80.4,279.5-49.8,329.2C8728.6-1097.4,7813.7-1101.2,7765.8-1128z"/><path d="M7716.1-1983.6c-91.9-93.8-65.1-271.8,49.8-323.5c61.3-28.7,958.9-32.5,1031.7-3.8c130.1,49.8,158.9,233.5,49.8,331.1l-57.4,51.7h-509.1h-509.2L7716.1-1983.6z"/><path d="M7783.1-2751.1c-109.1-44-158.9-208.6-91.9-304.3c61.3-86.1,126.3-97.6,601-97.6c503.4,0,551.3,9.6,606.8,124.4c28.7,61.3,30.6,76.6,5.7,149.3c-49.8,139.7-86.1,147.4-622.1,145.5C8030-2733.9,7804.1-2741.6,7783.1-2751.1z"/></g></g>
</svg>