<?xml version="1.0" encoding="utf-8"?>
<!-- Svg Vector Icons : http://www.onlinewebfonts.com/icon -->
<!DOCTYPE svg PUBLIC "-//W3C//DTD SVG 1.1//EN" "http://www.w3.org/Graphics/SVG/1.1/DTD/svg11.dtd">
<svg version="1.1" xmlns="http://www.w3.org/2000/svg" xmlns:xlink="http://www.w3.org/1999/xlink" x="0px" y="0px" viewBox="0 0 1000 1000" enable-background="new 0 0 1000 1000" xml:space="preserve">
<metadata> Svg Vector Icons : http://www.onlinewebfonts.com/icon </metadata>
<g><g transform="translate(0.000000,512.000000) scale(0.100000,-0.100000)"><path d="M4560.5,5006.7c-409.8-42.1-888.6-149.4-1235.3-277.7c-105.3-38.3-319.8-134.1-478.8-210.7C1436.9,3832.7,425.7,2476.8,167.2,927.4c-226-1355.9,122.6-2717.6,980.6-3830.3c160.9-208.8,618.6-666.5,827.3-827.3c524.8-404.1,1112.7-702.9,1714.1-867.6c1388.5-381.1,2826.7-151.3,4016,641.6c2083.7,1384.6,2790.4,4075.4,1656.6,6308.5c-369.6,731.6-961.4,1390.4-1664.3,1863.4c-281.5,187.7-798.6,440.5-1126.1,549.6c-283.4,93.8-599.4,168.5-904,212.6C5430,5014.4,4786.5,5029.7,4560.5,5006.7z M2760.3,743.6c233.7-1210.4,429-2217.7,434.7-2238.8c5.7-21.1,143.6,647.3,304.5,1484.2c499.8,2595,492.2,2560.6,505.6,2508.8c7.7-26.8,235.6-1396.1,509.4-3043.2C4886.1-2786,5014.4-3523.4,5024-3475.5c7.7,36.4,162.8,1130,340.9,2430.3c180,1300.4,362,2623.8,406,2937.8c55.5,394.5,84.3,559.2,95.8,526.7c7.7-24.9,178.1-903.9,379.2-1951.5c201.1-1047.6,371.5-1926.6,379.2-1951.5c9.6-30.7,153.2,677.9,444.3,2187.1c235.6,1227.6,434.7,2229.2,440.5,2225.4s183.8-452,392.6-997.8c275.8-714.3,384.9-978.6,396.4-953.7c7.6,21.1,124.5,394.5,256.6,831.2c134.1,436.7,249,802.4,256.6,810.1c19.2,23,191.5-266.2,325.6-547.7c191.5-400.3,321.7-831.2,394.5-1300.4c47.9-302.6,47.9-974.8,1.9-1279.3c-162.8-1051.4-632-1959.2-1382.7-2677.4C7462-3845.1,6604-4262.6,5642.6-4408.2c-314.1-47.9-963.3-49.8-1273.6-1.9c-497.9,76.6-928.8,208.8-1369.3,423.3C1775.9-3389.3,879.6-2278.5,556-960.9C460.2-568.3,435.3-334.6,435.3,132.7c0,572.6,67,982.5,247,1503.4c69,201.1,363.9,823.5,388.8,823.5c7.7,0,116.8-337.1,241.3-746.9c126.4-411.8,233.7-746.9,239.4-746.9c7.6,0,183.8,448.1,394.5,994c210.7,547.7,385,994,386.9,990.1C2335.1,2947.9,2528.6,1955.9,2760.3,743.6z"/></g></g>
</svg>