<?xml version="1.0" encoding="utf-8"?>
<!-- Svg Vector Icons : http://www.onlinewebfonts.com/icon -->
<!DOCTYPE svg PUBLIC "-//W3C//DTD SVG 1.1//EN" "http://www.w3.org/Graphics/SVG/1.1/DTD/svg11.dtd">
<svg version="1.1" xmlns="http://www.w3.org/2000/svg" xmlns:xlink="http://www.w3.org/1999/xlink" x="0px" y="0px" viewBox="0 0 1000 1000" enable-background="new 0 0 1000 1000" xml:space="preserve">
<metadata> Svg Vector Icons : http://www.onlinewebfonts.com/icon </metadata>
<g><path d="M119.1,38.4c30.7-30.7,18.4-30.7,49.2,0c49.2,55.3,104.5,104.5,153.6,159.7c12.3,12.3,12.3,18.4,0,30.7c-24.6,18.4-24.6,18.4,0,36.9c36.9,43,79.9,79.9,116.7,110.6c6.1,6.1,6.1,18.4,0,24.6c-18.4,18.4-30.7,36.9-49.2,49.2c-6.1,6.1-12.3,6.1-18.4,0l0,0c-43-43-79.9-79.9-122.9-122.9c-12.3-12.3-18.4-12.3-30.7,0c-18.4,24.6-18.4,24.6-36.9,0c-43-36.9-135.2-129-165.9-165.9c-6.1-6.1-6.1-12.3,0-18.4C39.2,118.3,88.3,69.1,119.1,38.4z"/><path d="M764.2,32.3c-55.3,61.4-110.6,122.9-172,184.3c-12.3,12.3-12.3,24.6-6.1,43c18.4,43,30.7,86,43,129c6.1,12.3,12.3,18.4,24.6,18.4c43,6.1,92.2,18.4,135.2,24.6c18.4,6.1,24.6,0,36.9-12.3c49.2-49.2,92.2-104.5,141.3-153.6c6.1-6.1,12.3-12.3,18.4-18.4c6.1,30.7,6.1,61.4,0,86c-24.6,110.6-104.5,178.2-215,196.6c-36.9,6.1-73.7,0-110.6-12.3c-6.1,0-24.6,0-30.7,6.1C530.7,585.3,444.7,665.1,371,757.3c-6.1,12.3-12.3,18.4-6.1,30.7c24.6,86-30.7,172-110.6,190.5c-92.2,18.4-165.9-36.9-184.3-116.7c-18.4-92.2,49.2-184.3,147.5-184.3c12.3,0,30.7,0,43,0c6.1,0,12.3,0,18.4-6.1c86-79.9,159.8-172,221.2-276.5c6.1-6.1,6.1-18.4,0-30.7C444.7,216.6,536.9,56.9,690.5,32.3C715,26.1,739.6,32.3,764.2,32.3L764.2,32.3z M303.4,831c0-49.2-36.9-86-86-86s-86,36.9-86,86c0,49.2,36.9,86,86,86S303.4,874,303.4,831z"/><path d="M782.6,984.6c-24.6,0-49.2-6.1-67.6-24.6c-73.7-73.7-141.3-147.5-215-221.2c-6.1-6.1-6.1-18.4,0-24.6c43-67.6,98.3-122.9,178.2-153.6c12.3-6.1,18.4-6.1,24.6,6.1c67.6,67.6,135.2,129,202.8,190.5c49.2,43,49.2,104.4,0,147.5c-18.4,18.4-36.9,36.9-49.2,49.2C837.9,972.3,813.4,984.6,782.6,984.6z M880.9,800.3L696.6,616c-12.3-12.3-24.6-6.1-36.9,0c-12.3,12.3-12.3,24.6,0,36.9c0,6.1,190.5,190.5,190.5,190.5s18.4,6.1,36.9-6.1C893.2,824.9,880.9,800.3,880.9,800.3z M573.7,695.8c-12.3,12.3-6.1,36.9,0,43C629,800.3,690.5,855.6,751.9,917c12.3,12.3,30.7,18.4,43,6.1c12.3-12.3,12.3-30.7-6.1-43c-55.3-61.4-116.7-116.7-178.2-172C610.6,695.8,592.2,683.6,573.7,695.8z"/></g>
</svg>